# xmcd
#
# Track frame offsets:
#	150
#	21977
#	38532
#	58507
#	75830
#	88245
#	103547
#	120395
#	132997
#	152582
#	168215
#	186727
#
# Disc length: 2819 seconds
#
# Revision: 1
# Processed by: cddbd v1.5.1PL2 Copyright (c) Steve Scherf et al.
# Submitted via: audiograbber 1.83.01
#
DISCID=8e0b010c
DTITLE=Zezinho Barros - Serestas Vol.5
DYEAR=1900
DGENRE=Brasil Sertanejo
TTITLE0=Meu País
TTITLE1=Coração que ama
TTITLE2=Saudade miserável de você
TTITLE3=Bem-te-vi
TTITLE4=Solidão de um Caminhoneiro
TTITLE5=Toque Xote
TTITLE6=Eu Tô Voltando Mãe
TTITLE7=Fogo de Amor
TTITLE8=Bate o Pé
TTITLE9=Baixão de Beata
TTITLE10=Montanha Maior do Mundo
TTITLE11=Frei Damião
EXTD=
EXTT0=
EXTT1=
EXTT2=
EXTT3=
EXTT4=
EXTT5=
EXTT6=
EXTT7=
EXTT8=
EXTT9=
EXTT10=
EXTT11=
PLAYORDER=
